<mxfile host="Electron" modified="2023-07-18T09:27:37.611Z" agent="Mozilla/5.0 (X11; Linux x86_64) AppleWebKit/537.36 (KHTML, like Gecko) draw.io/21.2.1 Chrome/112.0.5615.87 Electron/24.1.2 Safari/537.36" etag="RoxrdkPY_4Jn2o8_8Nzx" version="21.2.1" type="device">
  <diagram id="C5RBs43oDa-KdzZeNtuy" name="Page-1">
    <mxGraphModel dx="2514" dy="2349" grid="1" gridSize="10" guides="1" tooltips="1" connect="1" arrows="1" fold="1" page="1" pageScale="1" pageWidth="827" pageHeight="1169" math="0" shadow="0">
      <root>
        <mxCell id="WIyWlLk6GJQsqaUBKTNV-0" />
        <mxCell id="WIyWlLk6GJQsqaUBKTNV-1" parent="WIyWlLk6GJQsqaUBKTNV-0" />
        <mxCell id="OS34swofVHCtEO30d12F-35" value="" style="rounded=0;whiteSpace=wrap;html=1;strokeWidth=3;" vertex="1" parent="WIyWlLk6GJQsqaUBKTNV-1">
          <mxGeometry x="420" y="-30" width="330" height="870" as="geometry" />
        </mxCell>
        <mxCell id="OS34swofVHCtEO30d12F-34" value="" style="rounded=0;whiteSpace=wrap;html=1;strokeWidth=3;" vertex="1" parent="WIyWlLk6GJQsqaUBKTNV-1">
          <mxGeometry x="-250" y="-30" width="670" height="870" as="geometry" />
        </mxCell>
        <mxCell id="8kL1riByRfxLuhDMLhum-46" value="" style="rounded=0;whiteSpace=wrap;html=1;fillColor=#f5f5f5;fontColor=#333333;strokeColor=#666666;fontStyle=1" parent="WIyWlLk6GJQsqaUBKTNV-1" vertex="1">
          <mxGeometry x="440" y="280" width="280" height="420" as="geometry" />
        </mxCell>
        <mxCell id="8kL1riByRfxLuhDMLhum-24" value="" style="edgeStyle=orthogonalEdgeStyle;rounded=0;orthogonalLoop=1;jettySize=auto;html=1;fontStyle=1" parent="WIyWlLk6GJQsqaUBKTNV-1" source="8kL1riByRfxLuhDMLhum-4" target="8kL1riByRfxLuhDMLhum-5" edge="1">
          <mxGeometry relative="1" as="geometry" />
        </mxCell>
        <mxCell id="8kL1riByRfxLuhDMLhum-4" value="safetyCheck()" style="shape=process;whiteSpace=wrap;html=1;backgroundOutline=1;fontSize=20;fillColor=#fff2cc;strokeColor=#d6b656;fontStyle=1" parent="WIyWlLk6GJQsqaUBKTNV-1" vertex="1">
          <mxGeometry x="510" y="390" width="180" height="60" as="geometry" />
        </mxCell>
        <mxCell id="8kL1riByRfxLuhDMLhum-25" value="" style="edgeStyle=orthogonalEdgeStyle;rounded=0;orthogonalLoop=1;jettySize=auto;html=1;fontStyle=1" parent="WIyWlLk6GJQsqaUBKTNV-1" source="8kL1riByRfxLuhDMLhum-5" edge="1">
          <mxGeometry relative="1" as="geometry">
            <mxPoint x="600" y="590" as="targetPoint" />
          </mxGeometry>
        </mxCell>
        <mxCell id="8kL1riByRfxLuhDMLhum-5" value="getCommand()" style="shape=process;whiteSpace=wrap;html=1;backgroundOutline=1;fontSize=20;fillColor=#fff2cc;strokeColor=#d6b656;fontStyle=1" parent="WIyWlLk6GJQsqaUBKTNV-1" vertex="1">
          <mxGeometry x="510" y="490" width="180" height="60" as="geometry" />
        </mxCell>
        <mxCell id="8kL1riByRfxLuhDMLhum-19" value="" style="edgeStyle=orthogonalEdgeStyle;rounded=0;orthogonalLoop=1;jettySize=auto;html=1;fontStyle=1" parent="WIyWlLk6GJQsqaUBKTNV-1" source="8kL1riByRfxLuhDMLhum-6" target="8kL1riByRfxLuhDMLhum-9" edge="1">
          <mxGeometry relative="1" as="geometry" />
        </mxCell>
        <mxCell id="8kL1riByRfxLuhDMLhum-6" value="Start" style="strokeWidth=2;html=1;shape=mxgraph.flowchart.start_1;whiteSpace=wrap;fontSize=20;fillColor=#d5e8d4;strokeColor=#82b366;fontStyle=1" parent="WIyWlLk6GJQsqaUBKTNV-1" vertex="1">
          <mxGeometry x="520" width="120" height="40" as="geometry" />
        </mxCell>
        <mxCell id="8kL1riByRfxLuhDMLhum-50" value="" style="edgeStyle=orthogonalEdgeStyle;rounded=0;orthogonalLoop=1;jettySize=auto;html=1;fontStyle=1" parent="WIyWlLk6GJQsqaUBKTNV-1" source="8kL1riByRfxLuhDMLhum-9" target="8kL1riByRfxLuhDMLhum-46" edge="1">
          <mxGeometry relative="1" as="geometry" />
        </mxCell>
        <mxCell id="8kL1riByRfxLuhDMLhum-9" value="setup()&lt;br style=&quot;border-color: var(--border-color);&quot;&gt;&lt;font style=&quot;border-color: var(--border-color); font-size: 16px;&quot;&gt;&lt;i style=&quot;border-color: var(--border-color);&quot;&gt;- Relais Pins&lt;br&gt;- ADC Library&amp;nbsp;&lt;br style=&quot;border-color: var(--border-color);&quot;&gt;- Serial Communication&lt;/i&gt;&lt;/font&gt;" style="rounded=0;whiteSpace=wrap;html=1;fontSize=20;fillColor=#f5f5f5;strokeColor=#666666;fontColor=#333333;fontStyle=1" parent="WIyWlLk6GJQsqaUBKTNV-1" vertex="1">
          <mxGeometry x="440" y="80" width="280" height="160" as="geometry" />
        </mxCell>
        <mxCell id="8kL1riByRfxLuhDMLhum-51" style="edgeStyle=orthogonalEdgeStyle;rounded=0;orthogonalLoop=1;jettySize=auto;html=1;exitX=0.5;exitY=1;exitDx=0;exitDy=0;entryX=0.5;entryY=0;entryDx=0;entryDy=0;fontStyle=1" parent="WIyWlLk6GJQsqaUBKTNV-1" source="8kL1riByRfxLuhDMLhum-47" target="8kL1riByRfxLuhDMLhum-4" edge="1">
          <mxGeometry relative="1" as="geometry">
            <Array as="points">
              <mxPoint x="580" y="340" />
              <mxPoint x="600" y="340" />
            </Array>
          </mxGeometry>
        </mxCell>
        <mxCell id="8kL1riByRfxLuhDMLhum-47" value="&lt;font style=&quot;font-size: 20px;&quot;&gt;loop()&lt;/font&gt;" style="text;html=1;strokeColor=none;fillColor=#f5f5f5;align=left;verticalAlign=middle;whiteSpace=wrap;rounded=0;fontColor=#333333;fontSize=20;fontStyle=1" parent="WIyWlLk6GJQsqaUBKTNV-1" vertex="1">
          <mxGeometry x="550" y="290" width="60" height="30" as="geometry" />
        </mxCell>
        <mxCell id="OS34swofVHCtEO30d12F-25" style="edgeStyle=orthogonalEdgeStyle;rounded=0;orthogonalLoop=1;jettySize=auto;html=1;exitX=0.5;exitY=1;exitDx=0;exitDy=0;entryX=0;entryY=0.5;entryDx=0;entryDy=0;fontStyle=1" edge="1" parent="WIyWlLk6GJQsqaUBKTNV-1" source="OS34swofVHCtEO30d12F-0" target="8kL1riByRfxLuhDMLhum-4">
          <mxGeometry relative="1" as="geometry">
            <Array as="points">
              <mxPoint x="600" y="670" />
              <mxPoint x="480" y="670" />
              <mxPoint x="480" y="420" />
            </Array>
          </mxGeometry>
        </mxCell>
        <mxCell id="OS34swofVHCtEO30d12F-0" value="control()" style="shape=process;whiteSpace=wrap;html=1;backgroundOutline=1;fontSize=20;fillColor=#fff2cc;strokeColor=#d6b656;fontStyle=1" vertex="1" parent="WIyWlLk6GJQsqaUBKTNV-1">
          <mxGeometry x="510" y="590" width="180" height="60" as="geometry" />
        </mxCell>
        <mxCell id="OS34swofVHCtEO30d12F-1" value="" style="rounded=0;whiteSpace=wrap;html=1;fillColor=#f5f5f5;fontColor=#333333;strokeColor=#666666;fontStyle=1" vertex="1" parent="WIyWlLk6GJQsqaUBKTNV-1">
          <mxGeometry x="-222.5" y="280" width="620" height="530" as="geometry" />
        </mxCell>
        <mxCell id="OS34swofVHCtEO30d12F-2" value="" style="edgeStyle=orthogonalEdgeStyle;rounded=0;orthogonalLoop=1;jettySize=auto;html=1;fontStyle=1" edge="1" parent="WIyWlLk6GJQsqaUBKTNV-1" source="OS34swofVHCtEO30d12F-3" target="OS34swofVHCtEO30d12F-11">
          <mxGeometry relative="1" as="geometry" />
        </mxCell>
        <mxCell id="OS34swofVHCtEO30d12F-3" value="recvWithStartEndMarkers()" style="shape=process;whiteSpace=wrap;html=1;backgroundOutline=1;fontSize=20;fillColor=#fff2cc;strokeColor=#d6b656;fontStyle=1" vertex="1" parent="WIyWlLk6GJQsqaUBKTNV-1">
          <mxGeometry x="-150" y="350" width="340" height="60" as="geometry" />
        </mxCell>
        <mxCell id="OS34swofVHCtEO30d12F-4" value="" style="edgeStyle=orthogonalEdgeStyle;rounded=0;orthogonalLoop=1;jettySize=auto;html=1;fontStyle=1" edge="1" parent="WIyWlLk6GJQsqaUBKTNV-1" source="OS34swofVHCtEO30d12F-5" target="OS34swofVHCtEO30d12F-7">
          <mxGeometry relative="1" as="geometry" />
        </mxCell>
        <mxCell id="OS34swofVHCtEO30d12F-5" value="Start" style="strokeWidth=2;html=1;shape=mxgraph.flowchart.start_1;whiteSpace=wrap;fontSize=20;fillColor=#d5e8d4;strokeColor=#82b366;fontStyle=1" vertex="1" parent="WIyWlLk6GJQsqaUBKTNV-1">
          <mxGeometry x="27.5" width="120" height="40" as="geometry" />
        </mxCell>
        <mxCell id="OS34swofVHCtEO30d12F-26" style="edgeStyle=orthogonalEdgeStyle;rounded=0;orthogonalLoop=1;jettySize=auto;html=1;exitX=0.5;exitY=1;exitDx=0;exitDy=0;entryX=0.5;entryY=0;entryDx=0;entryDy=0;fontStyle=1" edge="1" parent="WIyWlLk6GJQsqaUBKTNV-1" source="OS34swofVHCtEO30d12F-7" target="OS34swofVHCtEO30d12F-1">
          <mxGeometry relative="1" as="geometry" />
        </mxCell>
        <mxCell id="OS34swofVHCtEO30d12F-7" value="setup()&lt;br&gt;&lt;font style=&quot;font-size: 16px;&quot;&gt;&lt;i&gt;- WLAN&lt;br&gt;- Datenbank&lt;br&gt;- NTP Server&lt;br&gt;- Serial Communication&lt;br&gt;&lt;/i&gt;&lt;/font&gt;" style="rounded=0;whiteSpace=wrap;html=1;fontSize=20;fillColor=#f5f5f5;strokeColor=#666666;fontColor=#333333;fontStyle=1" vertex="1" parent="WIyWlLk6GJQsqaUBKTNV-1">
          <mxGeometry x="-52.5" y="80" width="280" height="160" as="geometry" />
        </mxCell>
        <mxCell id="OS34swofVHCtEO30d12F-8" value="" style="edgeStyle=orthogonalEdgeStyle;rounded=0;orthogonalLoop=1;jettySize=auto;html=1;entryX=0;entryY=0.5;entryDx=0;entryDy=0;fontStyle=1" edge="1" parent="WIyWlLk6GJQsqaUBKTNV-1" source="OS34swofVHCtEO30d12F-11" target="OS34swofVHCtEO30d12F-13">
          <mxGeometry relative="1" as="geometry">
            <mxPoint x="220" y="520" as="targetPoint" />
          </mxGeometry>
        </mxCell>
        <mxCell id="OS34swofVHCtEO30d12F-9" value="&lt;font style=&quot;font-size: 20px;&quot;&gt;Ja&lt;/font&gt;" style="edgeLabel;html=1;align=center;verticalAlign=middle;resizable=0;points=[];labelBackgroundColor=none;fontStyle=1" vertex="1" connectable="0" parent="OS34swofVHCtEO30d12F-8">
          <mxGeometry x="-0.6106" y="-1" relative="1" as="geometry">
            <mxPoint x="8" y="-20" as="offset" />
          </mxGeometry>
        </mxCell>
        <mxCell id="OS34swofVHCtEO30d12F-10" style="edgeStyle=orthogonalEdgeStyle;rounded=0;orthogonalLoop=1;jettySize=auto;html=1;exitX=0.5;exitY=1;exitDx=0;exitDy=0;exitPerimeter=0;entryX=0;entryY=0.5;entryDx=0;entryDy=0;fontStyle=1" edge="1" parent="WIyWlLk6GJQsqaUBKTNV-1" source="OS34swofVHCtEO30d12F-11" target="OS34swofVHCtEO30d12F-3">
          <mxGeometry relative="1" as="geometry">
            <Array as="points">
              <mxPoint x="20" y="650" />
              <mxPoint x="-200" y="650" />
              <mxPoint x="-200" y="380" />
            </Array>
          </mxGeometry>
        </mxCell>
        <mxCell id="OS34swofVHCtEO30d12F-11" value="newData == True" style="strokeWidth=1;html=1;shape=mxgraph.flowchart.decision;whiteSpace=wrap;fontSize=20;fillColor=#f8cecc;strokeColor=#b85450;fontStyle=1" vertex="1" parent="WIyWlLk6GJQsqaUBKTNV-1">
          <mxGeometry x="-140" y="440" width="320" height="160" as="geometry" />
        </mxCell>
        <mxCell id="OS34swofVHCtEO30d12F-12" value="" style="edgeStyle=orthogonalEdgeStyle;rounded=0;orthogonalLoop=1;jettySize=auto;html=1;fontStyle=1" edge="1" parent="WIyWlLk6GJQsqaUBKTNV-1" source="OS34swofVHCtEO30d12F-13" target="OS34swofVHCtEO30d12F-15">
          <mxGeometry relative="1" as="geometry" />
        </mxCell>
        <mxCell id="OS34swofVHCtEO30d12F-13" value="parseData()" style="shape=process;whiteSpace=wrap;html=1;backgroundOutline=1;fontSize=20;fillColor=#fff2cc;strokeColor=#d6b656;fontStyle=1" vertex="1" parent="WIyWlLk6GJQsqaUBKTNV-1">
          <mxGeometry x="227.5" y="497.25" width="147.5" height="45.5" as="geometry" />
        </mxCell>
        <mxCell id="OS34swofVHCtEO30d12F-14" value="" style="edgeStyle=orthogonalEdgeStyle;rounded=0;orthogonalLoop=1;jettySize=auto;html=1;fontStyle=1" edge="1" parent="WIyWlLk6GJQsqaUBKTNV-1" source="OS34swofVHCtEO30d12F-15">
          <mxGeometry relative="1" as="geometry">
            <mxPoint x="280" y="660" as="targetPoint" />
          </mxGeometry>
        </mxCell>
        <mxCell id="OS34swofVHCtEO30d12F-15" value="getGridPower()" style="shape=process;whiteSpace=wrap;html=1;backgroundOutline=1;fontSize=20;fillColor=#fff2cc;strokeColor=#d6b656;fontStyle=1" vertex="1" parent="WIyWlLk6GJQsqaUBKTNV-1">
          <mxGeometry x="185" y="584.5" width="190" height="40" as="geometry" />
        </mxCell>
        <mxCell id="OS34swofVHCtEO30d12F-16" style="edgeStyle=orthogonalEdgeStyle;rounded=0;orthogonalLoop=1;jettySize=auto;html=1;exitX=0.5;exitY=1;exitDx=0;exitDy=0;entryX=0.5;entryY=0;entryDx=0;entryDy=0;fontStyle=1" edge="1" parent="WIyWlLk6GJQsqaUBKTNV-1" source="OS34swofVHCtEO30d12F-17" target="OS34swofVHCtEO30d12F-3">
          <mxGeometry relative="1" as="geometry">
            <Array as="points">
              <mxPoint x="88" y="330" />
              <mxPoint x="20" y="330" />
            </Array>
          </mxGeometry>
        </mxCell>
        <mxCell id="OS34swofVHCtEO30d12F-17" value="&lt;font style=&quot;font-size: 20px;&quot;&gt;loop()&lt;/font&gt;" style="text;html=1;strokeColor=none;fillColor=#f5f5f5;align=left;verticalAlign=middle;whiteSpace=wrap;rounded=0;fontColor=#333333;fontStyle=1" vertex="1" parent="WIyWlLk6GJQsqaUBKTNV-1">
          <mxGeometry x="57.5" y="290" width="60" height="30" as="geometry" />
        </mxCell>
        <mxCell id="OS34swofVHCtEO30d12F-18" value="&lt;font style=&quot;font-size: 20px;&quot;&gt;Nein&lt;/font&gt;" style="edgeLabel;html=1;align=center;verticalAlign=middle;resizable=0;points=[];labelBackgroundColor=none;fontStyle=1" vertex="1" connectable="0" parent="WIyWlLk6GJQsqaUBKTNV-1">
          <mxGeometry x="50" y="630" as="geometry">
            <mxPoint x="3" y="-2" as="offset" />
          </mxGeometry>
        </mxCell>
        <mxCell id="OS34swofVHCtEO30d12F-19" value="" style="edgeStyle=orthogonalEdgeStyle;rounded=0;orthogonalLoop=1;jettySize=auto;html=1;fontStyle=1" edge="1" parent="WIyWlLk6GJQsqaUBKTNV-1" source="OS34swofVHCtEO30d12F-20" target="OS34swofVHCtEO30d12F-24">
          <mxGeometry relative="1" as="geometry" />
        </mxCell>
        <mxCell id="OS34swofVHCtEO30d12F-20" value="sendToServer()" style="shape=process;whiteSpace=wrap;html=1;backgroundOutline=1;fontSize=20;fillColor=#fff2cc;strokeColor=#d6b656;fontStyle=1" vertex="1" parent="WIyWlLk6GJQsqaUBKTNV-1">
          <mxGeometry x="185" y="740" width="190" height="40" as="geometry" />
        </mxCell>
        <mxCell id="OS34swofVHCtEO30d12F-21" value="" style="edgeStyle=orthogonalEdgeStyle;rounded=0;orthogonalLoop=1;jettySize=auto;html=1;fontStyle=1" edge="1" parent="WIyWlLk6GJQsqaUBKTNV-1" source="OS34swofVHCtEO30d12F-22" target="OS34swofVHCtEO30d12F-20">
          <mxGeometry relative="1" as="geometry" />
        </mxCell>
        <mxCell id="OS34swofVHCtEO30d12F-22" value="sendCommand()" style="shape=process;whiteSpace=wrap;html=1;backgroundOutline=1;fontSize=20;fillColor=#fff2cc;strokeColor=#d6b656;fontStyle=1" vertex="1" parent="WIyWlLk6GJQsqaUBKTNV-1">
          <mxGeometry x="185" y="660" width="190" height="40" as="geometry" />
        </mxCell>
        <mxCell id="OS34swofVHCtEO30d12F-23" style="edgeStyle=orthogonalEdgeStyle;rounded=0;orthogonalLoop=1;jettySize=auto;html=1;exitX=0;exitY=0.5;exitDx=0;exitDy=0;entryX=0;entryY=0.5;entryDx=0;entryDy=0;fontStyle=1" edge="1" parent="WIyWlLk6GJQsqaUBKTNV-1" source="OS34swofVHCtEO30d12F-24" target="OS34swofVHCtEO30d12F-3">
          <mxGeometry relative="1" as="geometry">
            <Array as="points">
              <mxPoint x="-200" y="760" />
              <mxPoint x="-200" y="380" />
            </Array>
          </mxGeometry>
        </mxCell>
        <mxCell id="OS34swofVHCtEO30d12F-24" value="&lt;font style=&quot;font-size: 20px;&quot;&gt;newData == False&lt;/font&gt;" style="shape=parallelogram;perimeter=parallelogramPerimeter;whiteSpace=wrap;html=1;fixedSize=1;fillColor=#dae8fc;strokeColor=#6c8ebf;fontStyle=1" vertex="1" parent="WIyWlLk6GJQsqaUBKTNV-1">
          <mxGeometry x="-85" y="740" width="210" height="40" as="geometry" />
        </mxCell>
        <mxCell id="OS34swofVHCtEO30d12F-27" value="" style="shape=flexArrow;endArrow=classic;html=1;rounded=0;exitX=0;exitY=0.25;exitDx=0;exitDy=0;fillColor=#e1d5e7;strokeColor=#9673a6;" edge="1" parent="WIyWlLk6GJQsqaUBKTNV-1" source="8kL1riByRfxLuhDMLhum-5">
          <mxGeometry width="50" height="50" relative="1" as="geometry">
            <mxPoint x="720" y="820" as="sourcePoint" />
            <mxPoint x="210" y="490" as="targetPoint" />
            <Array as="points">
              <mxPoint x="420" y="430" />
            </Array>
          </mxGeometry>
        </mxCell>
        <mxCell id="OS34swofVHCtEO30d12F-28" value="" style="shape=flexArrow;endArrow=classic;html=1;rounded=0;exitX=1;exitY=0.25;exitDx=0;exitDy=0;entryX=0;entryY=0.75;entryDx=0;entryDy=0;fillColor=#e1d5e7;strokeColor=#9673a6;" edge="1" parent="WIyWlLk6GJQsqaUBKTNV-1" source="OS34swofVHCtEO30d12F-22" target="8kL1riByRfxLuhDMLhum-5">
          <mxGeometry width="50" height="50" relative="1" as="geometry">
            <mxPoint x="200" y="520" as="sourcePoint" />
            <mxPoint x="250" y="470" as="targetPoint" />
          </mxGeometry>
        </mxCell>
        <mxCell id="OS34swofVHCtEO30d12F-29" value="&lt;font style=&quot;font-size: 20px;&quot;&gt;&lt;b&gt;serielle Kommunikation&lt;/b&gt;&lt;/font&gt;" style="text;html=1;strokeColor=#9673a6;fillColor=#e1d5e7;align=center;verticalAlign=middle;whiteSpace=wrap;rounded=0;" vertex="1" parent="WIyWlLk6GJQsqaUBKTNV-1">
          <mxGeometry x="337" y="307" width="157.5" height="70" as="geometry" />
        </mxCell>
        <mxCell id="OS34swofVHCtEO30d12F-31" value="&lt;b&gt;&lt;font style=&quot;font-size: 35px;&quot;&gt;ESP&lt;/font&gt;&lt;/b&gt;" style="text;html=1;strokeColor=none;fillColor=none;align=center;verticalAlign=middle;whiteSpace=wrap;rounded=0;" vertex="1" parent="WIyWlLk6GJQsqaUBKTNV-1">
          <mxGeometry x="-180" y="140" width="60" height="30" as="geometry" />
        </mxCell>
        <mxCell id="OS34swofVHCtEO30d12F-32" value="&lt;b&gt;&lt;font style=&quot;font-size: 35px;&quot;&gt;Arduino&lt;/font&gt;&lt;/b&gt;" style="text;html=1;align=center;verticalAlign=middle;whiteSpace=wrap;rounded=0;" vertex="1" parent="WIyWlLk6GJQsqaUBKTNV-1">
          <mxGeometry x="550" y="750" width="60" height="30" as="geometry" />
        </mxCell>
      </root>
    </mxGraphModel>
  </diagram>
</mxfile>
